<?xml version="1.0" encoding="UTF-8"?>
<svg xmlns="http://www.w3.org/2000/svg" xmlns:xlink="http://www.w3.org/1999/xlink" viewBox="0 0 50 50" width="50px" height="50px">
<g id="surface20201963">
<path style=" stroke:none;fill-rule:nonzero;fill:rgb(100%,100%,100%);fill-opacity:1;" d="M 16 3 C 8.832031 3 3 8.832031 3 16 L 3 34 C 3 41.167969 8.832031 47 16 47 L 34 47 C 41.167969 47 47 41.167969 47 34 L 47 16 C 47 8.832031 41.167969 3 34 3 Z M 16 5 L 34 5 C 40.085938 5 45 9.914062 45 16 L 45 34 C 45 40.085938 40.085938 45 34 45 L 16 45 C 9.914062 45 5 40.085938 5 34 L 5 16 C 5 9.914062 9.914062 5 16 5 Z M 37 11 C 35.894531 11 35 11.894531 35 13 C 35 14.105469 35.894531 15 37 15 C 38.105469 15 39 14.105469 39 13 C 39 11.894531 38.105469 11 37 11 Z M 25 14 C 18.9375 14 14 18.9375 14 25 C 14 31.0625 18.9375 36 25 36 C 31.0625 36 36 31.0625 36 25 C 36 18.9375 31.0625 14 25 14 Z M 25 16 C 29.980469 16 34 20.019531 34 25 C 34 29.980469 29.980469 34 25 34 C 20.019531 34 16 29.980469 16 25 C 16 20.019531 20.019531 16 25 16 Z M 25 16 "/>
</g>
</svg>
