<?xml version="1.0" encoding="utf-8"?>
<!-- Generator: Adobe Illustrator 25.2.1, SVG Export Plug-In . SVG Version: 6.00 Build 0)  -->
<svg version="1.1" id="Layer_1" xmlns="http://www.w3.org/2000/svg" xmlns:xlink="http://www.w3.org/1999/xlink" x="0px" y="0px"
	 viewBox="0 0 928 928" style="enable-background:new 0 0 928 928;" xml:space="preserve">
<style type="text/css">
	.st0{fill:#FFFFFF;}
</style>
<g>
	<path class="st0" d="M586.91,592.42c-5.76-4.91-13.46-7.92-21.73-6.75c-29.24,4.16-18.73,23.66-57.32,23.83
		c0,0,7.85,20.49,40,23.87c-23.22,25.09-43.95,47.71-60.07,58.77c-67.43,46.27-165.74,17.78-177.64-17.77
		c-11.9-35.55-9.35-112.54-58.65-131.17c0,0,8.5,41.47-28.9,87.17c-37.4,45.69-47.6,36.39-65.17,87.71c0,0,111.06-47.38,156.4-11.29
		c41.63,33.16,153.53,121.37,319.38,51.73c-3,31.31,15.12,43.05,15.12,43.05c8.3-37.53,25.24-23.18,35.47-50.77
		c2.29-6.16,1.9-12.52-0.11-18.21c24.52-18.08,130.43-103.45,62.48-182.62C700.15,496.36,640.45,539.13,586.91,592.42z
		 M450.06,750.75c-42.99,0-72.9-10.75-73.56-11c-4.51-1.68-6.78-6.67-5.11-11.16c1.69-4.48,6.71-6.77,11.21-5.09
		c0.35,0.12,35.1,12.77,82.33,9.8c62.91-3.91,117.14-32.15,161.21-83.92c3.11-3.65,8.61-4.11,12.29-1.01
		c3.67,3.09,4.13,8.58,1.02,12.23C576.78,734.22,503.37,750.75,450.06,750.75z"/>
	<path class="st0" d="M339.09,409.32c5.76,4.92,13.46,7.91,21.74,6.74c29.24-4.14,18.73-23.65,57.32-23.81
		c0,0-7.86-20.5-39.99-23.89c23.21-25.08,43.95-47.7,60.06-58.76c67.43-46.26,165.74-17.77,177.64,17.76
		c11.9,35.55,9.34,112.55,58.65,131.16c0,0-8.5-41.46,28.9-87.16c37.39-45.69,47.6-36.39,65.16-87.71c0,0-111.06,47.38-156.39,11.28
		c-41.63-33.15-153.53-121.35-319.39-51.71c3.01-31.31-15.11-43.06-15.11-43.06c-8.29,37.52-25.23,23.19-35.46,50.76
		c-2.28,6.17-1.9,12.53,0.11,18.22c-24.51,18.08-130.44,103.45-62.48,182.63C225.84,505.37,285.55,462.58,339.09,409.32z
		 M286.56,341.12c113.19-132.95,261.46-79.7,262.94-79.14c4.51,1.68,6.79,6.67,5.1,11.16c-1.68,4.48-6.69,6.79-11.2,5.09
		c-0.35-0.12-35.1-12.75-82.33-9.8c-62.91,3.91-117.14,32.15-161.21,83.91c-1.72,2.02-4.18,3.07-6.65,3.07
		c-1.99,0-3.99-0.68-5.63-2.06C283.9,350.25,283.45,344.77,286.56,341.12z"/>
</g>
</svg>
