<?xml version="1.0" encoding="utf-8"?>
<!-- Generator: Adobe Illustrator 25.2.1, SVG Export Plug-In . SVG Version: 6.00 Build 0)  -->
<svg version="1.1" id="Layer_1" xmlns="http://www.w3.org/2000/svg" xmlns:xlink="http://www.w3.org/1999/xlink" x="0px" y="0px"
	 viewBox="0 0 928 928" style="enable-background:new 0 0 928 928;" xml:space="preserve">
<style type="text/css">
	.st0{fill-rule:evenodd;clip-rule:evenodd;fill:#FFFFFF;}
</style>
<g>
	<polygon class="st0" points="491.55,592.79 281.74,533.86 6.98,716.39 	"/>
	<polygon class="st0" points="499.19,598.25 519.12,719.39 410.52,687.2 407.79,622.53 	"/>
	<polygon class="st0" points="403.43,689.39 314.76,699.48 293.47,652 400.97,624.72 	"/>
	<polygon class="st0" points="527.84,724.58 647.9,291.03 576.42,312.31 492.93,508.75 	"/>
	<polygon class="st0" points="483.64,506.3 354.59,455.27 280.38,524.86 496.74,585.7 	"/>
	<polygon class="st0" points="349.14,451.74 160.05,95.93 274.92,521.31 	"/>
	<polygon class="st0" points="545.86,679.56 598.79,671.92 653.9,358.41 636.45,352.96 	"/>
	<polygon class="st0" points="643.54,476.84 921.02,458.01 691.83,585.15 	"/>
	<polygon class="st0" points="638.35,477.65 686.64,586.25 617.34,596.89 	"/>
	<polygon class="st0" points="652.81,294.57 784.32,392.79 644.36,324.86 	"/>
	<polygon class="st0" points="768.77,388.15 638.62,348.05 643.81,329.22 	"/>
</g>
</svg>
