<?xml version="1.0" encoding="utf-8"?>
<!-- Generator: Adobe Illustrator 25.2.1, SVG Export Plug-In . SVG Version: 6.00 Build 0)  -->
<svg version="1.1" id="Layer_1" xmlns="http://www.w3.org/2000/svg" xmlns:xlink="http://www.w3.org/1999/xlink" x="0px" y="0px"
	 viewBox="0 0 928 928" style="enable-background:new 0 0 928 928;" xml:space="preserve">
<style type="text/css">
	.st0{fill:#FFFFFF;}
</style>
<g>
	<path class="st0" d="M670.42,283.62c0,3.8,0,6.44,0,9.08c0,133.92,0.01,267.83,0,401.75c0,20.31-17.37,33.28-35.31,26.47
		c-10.28-3.9-16.66-13.3-16.71-25c-0.08-20.95-0.02-41.91-0.02-62.86c0-113.87-0.01-227.75-0.01-341.62c0-2.21,0-4.41,0-7.67
		c-2.51,1.62-4.2,2.59-5.76,3.74c-29.11,21.51-58.18,43.08-87.32,64.55c-9.11,6.72-19,7.61-28.86,2.1
		c-9.36-5.23-13.81-13.7-13.19-24.43c0.45-7.91,4.04-14.39,10.45-19.14c44.63-33.07,89.22-66.19,133.96-99.11
		c11.28-8.3,22.14-8.32,33.45,0c44.75,32.9,89.41,65.93,133.95,99.11c11.98,8.93,14.08,24.87,5.54,36.42
		c-8.72,11.79-24.56,14.15-36.99,5.04c-29.02-21.26-57.87-42.73-86.8-64.11C675.05,286.66,673.21,285.5,670.42,283.62z"/>
	<path class="st0" d="M309.52,644.81c17.76-13.13,34.2-25.27,50.63-37.42c13.73-10.15,27.42-20.35,41.18-30.46
		c13.38-9.82,29.1-8.16,38.17,3.94c9.27,12.36,6.27,28.05-7.34,38.14c-43.17,31.98-86.34,63.95-129.53,95.9
		c-13.77,10.19-24.09,10.45-37.38,0.65c-43.77-32.31-87.46-64.73-131.22-97.06c-9.09-6.72-13.33-15.58-11.32-26.69
		c1.91-10.54,8.47-17.5,18.85-20.37c9-2.49,16.9,0.08,24.3,5.6c28.29,21.09,56.71,42.01,85.09,62.98c1.77,1.31,3.62,2.51,6.53,4.52
		c0-3.74,0-6.36,0-8.98c0-133.91-0.01-267.83,0.01-401.74c0-17.28,11.06-28.74,27.12-28.25c12.97,0.4,23.86,10.74,24.83,23.66
		c0.19,2.49,0.08,5.01,0.08,7.51c0.01,133.23,0.01,266.46,0.01,399.7C309.52,638.66,309.52,640.91,309.52,644.81z"/>
</g>
</svg>
