<?xml version="1.0" encoding="UTF-8"?>
<svg xmlns="http://www.w3.org/2000/svg" xmlns:xlink="http://www.w3.org/1999/xlink" viewBox="0 0 50 50" width="50px" height="50px">
<g id="surface20205343">
<path style=" stroke:none;fill-rule:nonzero;fill:rgb(100%,100%,100%);fill-opacity:1;" d="M 44.378906 5.988281 C 43.890625 6.007812 43.414062 6.144531 42.988281 6.316406 C 42.566406 6.484375 40.128906 7.523438 36.53125 9.0625 C 32.933594 10.601562 28.257812 12.605469 23.621094 14.589844 C 14.347656 18.5625 5.238281 22.46875 5.238281 22.46875 L 5.304688 22.445312 C 5.304688 22.445312 4.753906 22.628906 4.195312 23.015625 C 3.917969 23.210938 3.617188 23.460938 3.371094 23.828125 C 3.128906 24.195312 2.949219 24.710938 3.015625 25.257812 C 3.253906 27.183594 5.246094 27.730469 5.246094 27.730469 L 5.257812 27.734375 L 14.160156 30.78125 C 14.386719 31.539062 16.859375 39.792969 17.402344 41.542969 C 17.703125 42.507812 17.984375 43.066406 18.277344 43.445312 C 18.425781 43.636719 18.578125 43.78125 18.75 43.890625 C 18.816406 43.933594 18.886719 43.964844 18.957031 43.996094 C 18.957031 43.996094 18.960938 43.992188 18.960938 43.996094 C 18.96875 43.996094 18.976562 44 18.988281 44.003906 L 18.964844 43.996094 C 18.980469 44.003906 18.996094 44.015625 19.011719 44.019531 C 19.042969 44.03125 19.0625 44.03125 19.105469 44.039062 C 20.125 44.394531 20.96875 43.734375 20.96875 43.734375 L 21.003906 43.707031 L 26.472656 38.636719 L 35.347656 45.554688 L 35.457031 45.605469 C 37.011719 46.296875 38.414062 45.910156 39.195312 45.277344 C 39.972656 44.644531 40.277344 43.828125 40.277344 43.828125 L 40.3125 43.742188 L 46.832031 9.753906 C 47 8.992188 47.023438 8.335938 46.867188 7.742188 C 46.707031 7.144531 46.324219 6.628906 45.847656 6.34375 C 45.367188 6.058594 44.863281 5.964844 44.378906 5.988281 Z M 44.429688 8.019531 C 44.628906 8.011719 44.773438 8.03125 44.820312 8.058594 C 44.867188 8.089844 44.886719 8.085938 44.933594 8.253906 C 44.976562 8.417969 45 8.773438 44.878906 9.324219 L 44.875 9.335938 L 38.390625 43.128906 C 38.375 43.164062 38.238281 43.476562 37.933594 43.726562 C 37.617188 43.984375 37.265625 44.183594 36.339844 43.792969 L 26.632812 36.222656 L 26.359375 36.007812 L 26.355469 36.015625 L 23.453125 33.835938 L 39.761719 14.648438 C 40.019531 14.347656 40.074219 13.925781 39.902344 13.570312 C 39.734375 13.210938 39.371094 12.988281 38.976562 13 C 38.785156 13.003906 38.601562 13.0625 38.445312 13.167969 L 14.84375 28.902344 L 5.929688 25.847656 C 5.929688 25.847656 5.042969 25.355469 5 25.011719 C 4.996094 24.996094 4.988281 25.011719 5.035156 24.941406 C 5.078125 24.875 5.195312 24.757812 5.339844 24.65625 C 5.628906 24.457031 5.960938 24.332031 5.960938 24.332031 L 5.996094 24.320312 L 6.027344 24.308594 C 6.027344 24.308594 15.140625 20.398438 24.410156 16.425781 C 29.046875 14.441406 33.722656 12.441406 37.320312 10.902344 C 40.914062 9.363281 43.511719 8.257812 43.734375 8.167969 C 43.984375 8.070312 44.230469 8.027344 44.429688 8.019531 Z M 33.613281 18.792969 L 21.246094 33.34375 L 21.238281 33.351562 C 21.21875 33.375 21.199219 33.398438 21.183594 33.421875 C 21.164062 33.449219 21.144531 33.480469 21.128906 33.507812 C 21.058594 33.625 21.015625 33.757812 21 33.890625 C 20.996094 33.894531 20.996094 33.898438 21 33.898438 L 19.386719 41.144531 C 19.359375 41.066406 19.339844 41.039062 19.3125 40.945312 C 18.800781 39.300781 16.46875 31.515625 16.144531 30.441406 Z M 22.640625 35.730469 L 24.863281 37.398438 L 21.597656 40.425781 Z M 22.640625 35.730469 "/>
</g>
</svg>
