<svg width="46" height="46" viewBox="0 0 46 46" fill="none" xmlns="http://www.w3.org/2000/svg">
<g id="Iconsax/Linear/mousesquare">
<path id="Vector" d="M42.1666 22.9999V17.2499C42.1666 7.66659 38.3333 3.83325 28.7499 3.83325H17.2499C7.66659 3.83325 3.83325 7.66659 3.83325 17.2499V28.7499C3.83325 38.3333 7.66659 42.1666 17.2499 42.1666H22.9999" stroke="#0066FF" stroke-width="1.5" stroke-linecap="round" stroke-linejoin="round"/>
<path id="Vector_2" d="M40.1734 34.1934L37.0492 35.2475C36.1867 35.535 35.4967 36.2059 35.2092 37.0875L34.155 40.2117C33.2542 42.9142 29.4592 42.8567 28.6159 40.1542L25.07 28.75C24.38 26.4884 26.4692 24.38 28.7117 25.0892L40.135 28.635C42.8184 29.4784 42.8567 33.2925 40.1734 34.1934Z" stroke="#0066FF" stroke-width="1.5" stroke-linecap="round" stroke-linejoin="round"/>
</g>
</svg>
