<svg width="354" height="339" viewBox="0 0 354 339" fill="none" xmlns="http://www.w3.org/2000/svg">
<path d="M274.199 262.232H265.696L265.694 231.572H113.316L155.747 190.676H265.692L265.691 160L274.285 160.007L327.59 211.178L274.199 262.232ZM317.532 211.168L272.799 168.227L303.285 197.492L317.532 211.168Z" fill="white"/>
<path d="M87.9654 68.9999H96.4682L96.4699 99.659H248.848L206.417 140.556H96.4722L96.4737 171.231L87.8792 171.224L34.5748 120.053L87.9654 68.9999ZM44.632 120.063L89.3649 163.004L58.8788 133.74L44.632 120.063Z" fill="white"/>
<line y1="-1" x2="486.93" y2="-1" transform="matrix(0.721809 -0.692092 0.721809 0.692092 2.24341 339)" stroke="white" stroke-width="2"/>
</svg>
