<svg width="463" height="463" viewBox="0 0 463 463" fill="none" xmlns="http://www.w3.org/2000/svg">
<g filter="url(#filter0_d_250_689)">
<path d="M37.2182 220.741C27.2927 223.595 20.0809 211.362 27.3837 204.059L224.372 7.07106C228.277 3.16582 234.609 3.16582 238.514 7.07107L435.502 204.059C442.805 211.362 435.593 223.595 425.667 220.741L234.206 165.687C232.401 165.167 230.485 165.167 228.679 165.687L37.2182 220.741Z" fill="#061B66"/>
</g>
<path d="M220.67 101.727V125H216.42L206.295 110.352H206.125V125H201.204V101.727H205.522L215.568 116.364H215.772V101.727H220.67ZM224.735 125V101.727H240.144V105.784H229.656V111.33H239.122V115.386H229.656V125H224.735ZM242.568 105.784V101.727H261.681V105.784H254.556V125H249.693V105.784H242.568Z" fill="white"/>
<path d="M232.279 19.5972L308.831 96.1495" stroke="#F0BB51" stroke-width="4" stroke-linecap="round"/>
<path d="M232.279 19.5972L156.174 95.7018" stroke="#F0BB51" stroke-width="4" stroke-linecap="round"/>
<defs>
<filter id="filter0_d_250_689" x="13.4033" y="2.14209" width="436.079" height="239.022" filterUnits="userSpaceOnUse" color-interpolation-filters="sRGB">
<feFlood flood-opacity="0" result="BackgroundImageFix"/>
<!-- <feColorMatrix in="SourceAlpha" type="matrix" values="0 0 0 0 0 0 0 0 0 0 0 0 0 0 0 0 0 0 127 0" result="hardAlpha"/> -->
<feOffset dy="9"/>
<feGaussianBlur stdDeviation="5.5"/>
<feComposite in2="hardAlpha" operator="out"/>
<feColorMatrix type="matrix" values="0 0 0 0 0 0 0 0 0 0.4 0 0 0 0 1 0 0 0 1 0"/>
<feBlend mode="normal" in2="BackgroundImageFix" result="effect1_dropShadow_250_689"/>
<feBlend mode="normal" in="SourceGraphic" in2="effect1_dropShadow_250_689" result="shape"/>
</filter>
</defs>
</svg>
