<svg width="96" height="89" viewBox="0 0 86 81" fill="none" xmlns="http://www.w3.org/2000/svg">
<path d="M80.9273 80.8661H4.95089C3.83184 80.8647 2.75899 80.3962 1.9677 79.5634C1.1764 78.7305 0.731284 77.6013 0.72998 76.4234V5.34017C0.731284 4.16231 1.1764 3.03309 1.9677 2.20022C2.75899 1.36735 3.83184 0.89884 4.95089 0.897468H37.7803C38.614 0.895885 39.4293 1.15489 40.123 1.64164C40.8166 2.1284 41.3573 2.82098 41.6765 3.63158L45.284 12.7447H80.9273C82.0464 12.746 83.1192 13.2146 83.9105 14.0474C84.7018 14.8803 85.147 16.0095 85.1483 17.1874V76.4234C85.147 77.6013 84.7018 78.7305 83.9105 79.5634C83.1192 80.3962 82.0464 80.8647 80.9273 80.8661ZM6.35787 74.9425H79.5204V18.6683H41.5322L36.8422 6.82107H6.35787V74.9425Z" fill="white"/>
</svg>
