<svg width="35" height="34" viewBox="0 0 35 34" fill="none" xmlns="http://www.w3.org/2000/svg">
<path d="M14.9658 29.1122V13.0213H19.034V29.1122H14.9658ZM8.95444 23.1008V19.0326H25.0454V23.1008H8.95444Z" fill="white"/>
<path d="M32.9086 33.1601H1.74464C1.28562 33.1595 0.845564 32.9681 0.520992 32.6279C0.19642 32.2877 0.0138402 31.8264 0.0133057 31.3453V2.30823C0.0138402 1.82708 0.19642 1.3658 0.520992 1.02558C0.845564 0.685354 1.28562 0.493972 1.74464 0.493411H15.2106C15.5525 0.492764 15.887 0.598566 16.1715 0.797401C16.456 0.996237 16.6778 1.27915 16.8088 1.61028L18.2885 5.33292H32.9086C33.3676 5.33348 33.8077 5.52486 34.1323 5.86508C34.4569 6.2053 34.6394 6.66658 34.64 7.14773V31.3453C34.6394 31.8264 34.4569 32.2877 34.1323 32.6279C33.8077 32.9681 33.3676 33.1595 32.9086 33.1601ZM2.32175 30.7403H32.3315V7.75267H16.7495L14.8258 2.91316H2.32175V30.7403Z" fill="white"/>
</svg>
