<svg width="38" height="38" viewBox="0 0 38 38" fill="none" xmlns="http://www.w3.org/2000/svg">
<g id="&#240;&#159;&#166;&#134; icon &#34;pencil&#34;">
<path id="Vector" d="M0.58928 37.404L0.59626 37.411C0.78134 37.5974 1.00145 37.7454 1.24393 37.8465C1.48641 37.9476 1.74648 37.9998 2.00919 38C2.23024 37.9998 2.44977 37.9634 2.65901 37.8921L14.0515 34.0274L35.9129 12.1658C37.2493 10.8293 38.0001 9.01651 38 7.12639C37.9999 5.23627 37.249 3.4236 35.9124 2.08714C34.5759 0.750685 32.7632 -8.27424e-05 30.8731 6.8397e-09C28.983 8.27561e-05 27.1703 0.751009 25.8339 2.08758L3.97246 23.9492L0.108169 35.3415C-0.013556 35.6957 -0.0329856 36.0771 0.0521082 36.4419C0.137202 36.8067 0.323375 37.1402 0.58928 37.404ZM27.6493 3.90286C28.5054 3.05321 29.6634 2.57745 30.8696 2.57977C32.0758 2.58208 33.232 3.06229 34.0849 3.91522C34.9378 4.76815 35.4179 5.92431 35.4202 7.13053C35.4225 8.33674 34.9467 9.49471 34.0971 10.3509L31.2223 13.2257L24.7743 6.77768L27.6493 3.90286ZM6.21155 25.3407L22.9591 8.59296L29.407 15.041L12.6594 31.7887L2.90129 35.0989L6.21155 25.3407Z" fill="white"/>
</g>
</svg>
