<svg width="41" height="51" viewBox="0 0 41 51" fill="none" xmlns="http://www.w3.org/2000/svg">
<g id="&#240;&#159;&#166;&#134; icon &#34;trash&#34;">
<path id="Vector" d="M3.34016 47.5993C3.33515 48.2576 3.59146 48.8911 4.05286 49.3607C4.51426 49.8304 5.1431 50.0978 5.80144 50.1045H34.2819C34.9402 50.0978 35.569 49.8304 36.0304 49.3607C36.4918 48.8911 36.7482 48.2576 36.7431 47.5993V14.1963H3.34016V47.5993ZM6.68046 17.5366H33.4028V46.7642H6.68046V17.5366Z" fill="white"/>
<path id="Vector_2" d="M14.1963 20.8765H10.856V41.7533H14.1963V20.8765Z" fill="white"/>
<path id="Vector_3" d="M21.7119 20.8765H18.3716V41.7533H21.7119V20.8765Z" fill="white"/>
<path id="Vector_4" d="M29.2275 20.8765H25.8872V41.7533H29.2275V20.8765Z" fill="white"/>
<path id="Vector_5" d="M27.5575 7.51567V2.50522C27.5575 1.10042 26.5671 0 25.3028 0H14.7808C13.5165 0 12.5261 1.10042 12.5261 2.50522V7.51567H0V10.856H40.0836V7.51567H27.5575ZM15.8664 3.3403H24.2172V7.51567H15.8664V3.3403Z" fill="white"/>
</g>
</svg>
