<svg width="55" height="55" viewBox="0 0 55 55" fill="none" xmlns="http://www.w3.org/2000/svg">
<g id="Iconsax/Linear/warning2">
<path id="Vector" d="M27.5002 17.7603V29.7916M48.3085 19.6624V35.3374C48.3085 37.9041 46.9335 40.2874 44.7106 41.5937L31.0981 49.4541C28.8752 50.7374 26.1252 50.7374 23.8794 49.4541L10.2669 41.5937C9.17093 40.9582 8.26151 40.0456 7.62996 38.9474C6.99841 37.8493 6.66698 36.6042 6.66895 35.3374V19.6624C6.66895 17.0958 8.04395 14.7124 10.2669 13.4062L23.8794 5.54575C26.1023 4.26242 28.8523 4.26242 31.0981 5.54575L44.7106 13.4062C46.9335 14.7124 48.3085 17.0728 48.3085 19.6624Z" stroke="white" stroke-width="1.5" stroke-linecap="round" stroke-linejoin="round"/>
<path id="Vector_2" d="M27.5 37.125V37.3542" stroke="white" stroke-width="2" stroke-linecap="round" stroke-linejoin="round"/>
</g>
</svg>
